Coordinates
version=1
nRows=14
nColumns=24
inDegrees=yes

Units are S.I. units (second, meters, Newtons, ...)
Angles are in degrees.

endheader
time	pelvis_tilt	pelvis_list	pelvis_rotation	pelvis_tx	pelvis_ty	pelvis_tz	hip_flexion_r	hip_adduction_r	hip_rotation_r	knee_angle_r	ankle_angle_r	subtalar_angle_r	mtp_angle_r	hip_flexion_l	hip_adduction_l	hip_rotation_l	knee_angle_l	ankle_angle_l	subtalar_angle_l	mtp_angle_l	lumbar_extension	lumbar_bending	lumbar_rotation
      2.08500000	      9.92039377	     -1.55326720	      3.02720036	      0.51065974	      1.01705187	      0.02818083	     -0.85079353	      0.25860284	    -20.43184357	    -18.26126651	      0.34744402	     13.01588611	      1.94426415	      2.97729632	     -6.94500642	    -11.54141515	    -47.42188547	     -3.60216763	    -15.72682737	     15.90916721	    -18.92557820	     15.60468399	     42.58493590
      2.09000000	      9.92543941	     -1.59929699	      2.74054913	      0.51657582	      1.01783508	      0.02880639	     -1.39432994	      0.37175426	    -20.26156639	    -17.89367492	      0.41974003	     13.26561420	      1.92071105	      3.37105778	     -6.87552938	    -11.79139506	    -46.44026343	     -3.42032897	    -15.75096951	     15.91745514	    -18.99949251	     15.55138236	     42.84561839
      2.09500000	      9.92468881	     -1.65047228	      2.44031425	      0.52243809	      1.01852676	      0.02945403	     -1.91698258	      0.48638537	    -20.04579732	    -17.54806939	      0.52646968	     13.46119774	      1.85535568	      3.76116961	     -6.81353310	    -12.04898001	    -45.42626284	     -3.27750785	    -15.75499188	     15.90497631	    -19.08258252	     15.50135295	     43.17174923
      2.10000000	      9.91975296	     -1.72085296	      2.13815720	      0.52830084	      1.01913314	      0.03011893	     -2.43203084	      0.61891850	    -19.82446352	    -17.20627992	      0.62914475	     13.64243550	      1.77075805	      4.14612980	     -6.78037682	    -12.33096690	    -44.38897595	     -3.16234996	    -15.78685673	     15.87068849	    -19.15944967	     15.46263545	     43.47014723
      2.10500000	      9.91314601	     -1.79118208	      1.83019541	      0.53416768	      1.01967961	      0.03076624	     -2.94101340	      0.74276401	    -19.59545790	    -16.87570276	      0.74554348	     13.81533309	      1.66300342	      4.51575528	     -6.74938357	    -12.63517650	    -43.31401286	     -3.09581687	    -15.83825972	     15.80835965	    -19.23349777	     15.42655344	     43.78687480
      2.11000000	      9.88524453	     -1.88089261	      1.50678133	      0.53998270	      1.02012427	      0.03143919	     -3.41269787	      0.88579100	    -19.30186724	    -16.57348889	      1.04441408	     13.92642509	      0.36723473	      4.90408977	     -6.74187270	    -12.96313443	    -42.23148754	     -2.99404759	    -15.89965190	     15.23390762	    -19.29506505	     15.40356791	     44.10854092
      2.11500000	      9.90000736	     -1.96362882	      1.21745799	      0.54586030	      1.02055270	      0.03204734	     -3.94502588	      1.01070399	    -19.11534506	    -16.25317377	      1.16645425	     14.16183867	      0.33786191	      5.22831390	     -6.73274381	    -13.28495217	    -41.10369340	     -3.01430511	    -15.93706883	     15.20020552	    -19.38399942	     15.37976152	     44.36580062
      2.12000000	      9.88989976	     -2.05567203	      0.90067040	      0.55169057	      1.02086269	      0.03269733	     -4.43556067	      1.14055544	    -18.85695162	    -15.95163872	      1.30391153	     14.32156767	      0.28804703	      5.56997383	     -6.73616866	    -13.63879904	    -39.96306299	     -3.06276109	    -16.02971982	     15.13305331	    -19.46189652	     15.35512908	     44.66687349
      2.12500000	      9.88144637	     -2.15970534	      0.58922635	      0.55751569	      1.02110694	      0.03332921	     -4.92601070	      1.27932839	    -18.59116874	    -15.65491187	      1.44981643	     14.45436969	      0.21840131	      5.90154100	     -6.75513892	    -14.00541274	    -38.80673768	     -3.14109044	    -16.12579693	     15.03452615	    -19.53987728	     15.34510255	     44.96308466
      2.13000000	      9.86820075	     -2.27146524	      0.27728153	      0.56332584	      1.02125678	      0.03395678	     -5.40475371	      1.41923241	    -18.31851363	    -15.37309588	      1.61145259	     14.58458613	      0.13886149	      6.23188619	     -6.78735401	    -14.39206731	    -37.64229065	     -3.24022825	    -16.21555411	     14.91033264	    -19.61602356	     15.34296871	     45.26206351
      2.13500000	      9.85166780	     -2.38649149	     -0.03517515	      0.56914494	      1.02134756	      0.03456418	     -5.87800858	      1.55594007	    -18.03929984	    -15.10062533	      1.78063264	     14.70738802	      0.04805131	      6.55290052	     -6.82353233	    -14.80130528	    -36.45986450	     -3.36736272	    -16.30051702	     14.75889084	    -19.68707291	     15.34573639	     45.56189283
      2.14000000	      9.83916290	     -2.51377543	     -0.34467067	      0.57494135	      1.02135650	      0.03517152	     -6.35141687	      1.70080686	    -17.75345931	    -14.83672260	      1.96248649	     14.82511985	     -0.04728721	      6.86753735	     -6.87739764	    -15.22179172	    -35.27924595	     -3.51286609	    -16.36682725	     14.58695100	    -19.76633246	     15.35744634	     45.84302280
      2.14500000	      9.82521579	     -2.65198534	     -0.64911799	      0.58073313	      1.02128013	      0.03575146	     -6.81988710	      1.85077499	    -17.46187306	    -14.58267485	      2.15673593	     14.93565032	     -0.15410826	      7.17899287	     -6.94418735	    -15.65989262	    -34.09868507	     -3.66691532	    -16.41500463	     14.38814773	    -19.84575967	     15.38629092	     46.13486255
      2.15000000	      9.78898189	     -2.79991750	     -0.94622033	      0.58650727	      1.02112918	      0.03633906	     -7.26295328	      2.01375026	    -17.12318328	    -14.33844202	      2.48313275	     14.97123280	     -1.32647512	      7.51449557	     -7.02349645	    -16.09744577	    -32.93420068	     -3.66914809	    -16.28074127	     13.00548805	    -19.89821899	     15.42036902	     46.39201065
